<svg width="16" height="16" viewBox="0 0 16 16" fill="none" xmlns="http://www.w3.org/2000/svg">
<path d="M7.99989 14L4 9.5L1.5 6.5L2.80374 2.75L5.5 2.5L8 3.5L10.5 2.5L13 2.5L14.5 6L12.5 9L7.99989 14Z" fill="#FE202D"/>
<path fill-rule="evenodd" clip-rule="evenodd" d="M8.14775 2.62901L8.00008 2.78421L7.85241 2.62901C6.20866 0.901454 3.53574 0.901454 1.892 2.62901C0.258332 4.34597 0.258332 7.12208 1.892 8.83904L7.04427 14.254C7.05076 14.2608 7.054 14.2641 7.05727 14.2675C7.06055 14.2708 7.06385 14.2741 7.07045 14.2808C7.59833 14.8056 8.44247 14.7936 8.95589 14.254L14.1082 8.83904C15.7418 7.12208 15.7418 4.34597 14.1082 2.62901C12.4644 0.901454 9.7915 0.901454 8.14775 2.62901ZM13.1524 3.57943C14.2827 4.76736 14.2827 6.701 13.1524 7.88893L8.00009 13.3039L2.84782 7.88893C1.71752 6.701 1.71752 4.76736 2.84782 3.57943C3.96803 2.40209 5.77639 2.40209 6.89661 3.57943L7.52219 4.2369C7.78395 4.51201 8.21623 4.51201 8.478 4.2369L9.10357 3.57943C10.2238 2.40209 12.0321 2.40209 13.1524 3.57943Z" fill="#FE202D"/>
</svg>
