<svg width="16" height="16" viewBox="0 0 16 16" fill="none" xmlns="http://www.w3.org/2000/svg">
<path fill-rule="evenodd" clip-rule="evenodd" d="M8.14751 2.629L7.99984 2.7842L7.85217 2.629C6.20842 0.901439 3.5355 0.901439 1.89175 2.629C0.258088 4.34596 0.258088 7.12207 1.89175 8.83903L7.04403 14.254C7.05051 14.2607 7.05376 14.2641 7.05703 14.2675C7.0603 14.2708 7.0636 14.2741 7.07021 14.2808C7.59809 14.8056 8.44223 14.7936 8.95565 14.254L14.1079 8.83903C15.7416 7.12207 15.7416 4.34596 14.1079 2.629C12.4642 0.901439 9.79126 0.901439 8.14751 2.629ZM13.1521 3.57941C14.2824 4.76734 14.2824 6.70099 13.1521 7.88892L7.99985 13.3039L2.84757 7.88892C1.71727 6.70099 1.71727 4.76734 2.84757 3.57941C3.96779 2.40208 5.77615 2.40208 6.89637 3.57941L7.52194 4.23688C7.78371 4.51199 8.21599 4.51199 8.47775 4.23688L9.10333 3.57941C10.2235 2.40208 12.0319 2.40208 13.1521 3.57941Z" fill="#6F6F6F"/>
</svg>
